<svg width="50" height="50" viewBox="0 0 50 50" fill="none" xmlns="http://www.w3.org/2000/svg">
<g clip-path="url(#clip0_642_5524)">
<path d="M40.4088 8.57747H9.55768V36.636H40.4088V8.57747Z" fill="white"/>
<path fill-rule="evenodd" clip-rule="evenodd" d="M49.9669 25.0002C49.9669 38.789 38.789 49.9668 25.0002 49.9668C11.2114 49.9668 0.0333862 38.789 0.0333862 25.0002C0.0333862 11.2113 11.2114 0.0333633 25.0002 0.0333633C38.789 0.0333633 49.9669 11.2113 49.9669 25.0002ZM17.9254 34.9357H13.0799C12.0618 34.9357 11.5589 34.9357 11.2522 34.7395C10.921 34.5247 10.7186 34.169 10.6941 33.7763C10.6756 33.4147 10.9271 32.973 11.4301 32.0897L23.3939 11.0019C23.9029 10.1065 24.1605 9.65873 24.4855 9.49313C24.8352 9.31528 25.2522 9.31528 25.6019 9.49313C25.9269 9.65873 26.1845 10.1065 26.6935 11.0019L29.153 15.2953L29.1655 15.3172C29.7154 16.2779 29.9942 16.765 30.116 17.2763C30.2509 17.8345 30.2509 18.4233 30.116 18.9815C29.9934 19.4967 29.7174 19.9873 29.1592 20.9625L22.8749 32.0713L22.8587 32.0998C22.3052 33.0683 22.0247 33.5593 21.636 33.9297C21.2129 34.3345 20.7037 34.6288 20.1455 34.7947C19.6365 34.9357 19.066 34.9357 17.9254 34.9357ZM30.1614 34.9357H37.1042C38.1285 34.9357 38.6437 34.9357 38.9507 34.7335C39.2817 34.5187 39.4902 34.1567 39.5089 33.7643C39.5264 33.4143 39.2804 32.9898 38.7984 32.158C38.7817 32.1297 38.765 32.1008 38.7482 32.0715L35.2704 26.1222L35.2309 26.0552C34.7422 25.2287 34.4955 24.8115 34.1787 24.6502C33.8292 24.4722 33.418 24.4722 33.0685 24.6502C32.7497 24.8157 32.492 25.2512 31.983 26.1282L28.5177 32.0777L28.5057 32.0982C27.9985 32.9738 27.745 33.4113 27.7632 33.7703C27.7879 34.163 27.9902 34.5247 28.3214 34.7395C28.6219 34.9357 29.1372 34.9357 30.1614 34.9357Z" fill="#E84142"/>
</g>
<defs>
<clipPath id="clip0_642_5524">
<rect width="50" height="50" fill="white"/>
</clipPath>
</defs>
</svg>
