<svg xmlns="http://www.w3.org/2000/svg" width="30" height="30" fill="none" xmlns:v="https://vecta.io/nano"><g clip-path="url(#A)"><path fill-rule="evenodd" d="M15 0c8.285 0 15 6.715 15 15s-6.715 15-15 15S0 23.285 0 15 6.715 0 15 0z" fill="#f0b90b"/><g fill="#fff"><path d="M8.244 15l.011 3.966 3.37 1.983v2.322l-5.343-3.133V13.84L8.244 15zm0-3.966v2.311l-1.963-1.161V9.873l1.963-1.161 1.972 1.161-1.972 1.161zm4.789-1.161l1.963-1.161 1.972 1.161-1.972 1.161-1.963-1.161zm-3.371 8.271v-2.322l1.963 1.161v2.311l-1.963-1.15zm3.37 3.637l1.963 1.161 1.972-1.161v2.311l-1.972 1.161-1.963-1.161v-2.311zm6.75-11.909l1.963-1.161 1.972 1.161v2.311l-1.972 1.161v-2.311l-1.963-1.161zm1.963 9.094L21.756 15l1.963-1.161v6.298l-5.343 3.133v-2.322l3.369-1.982zm-1.407-.822l-1.963 1.15v-2.311l1.963-1.161v2.322zm0-6.288l.011 2.322-3.38 1.983v3.976l-1.963 1.15-1.963-1.15v-3.976l-3.38-1.983v-2.322l1.971-1.161 3.359 1.993 3.38-1.993 1.972 1.161h-.008zM9.662 7.891l5.333-3.144 5.343 3.144-1.963 1.161-3.38-1.993-3.37 1.993-1.963-1.161z"/></g></g><defs><clipPath id="A"><path fill="#fff" d="M0 0h30v30H0z"/></clipPath></defs></svg>