<svg width="50" height="50" viewBox="0 0 50 50" fill="none" xmlns="http://www.w3.org/2000/svg">
<path d="M47.5882 9.21529C47.0842 7.30745 45.4644 5.3996 42.5485 3.27577C40.2087 1.58391 37.725 0.611984 35.7452 0.611984C35.3492 0.611984 34.9892 0.647981 34.6292 0.719974C33.7294 0.899961 32.9374 1.54791 32.4334 2.51984C31.8215 3.67174 31.6775 5.21962 32.0734 6.15554C32.2174 6.44352 32.3974 6.80349 32.6134 7.12745C30.7055 8.27937 29.6257 8.60334 29.4817 8.63934C34.4492 10.2952 38.5889 13.7509 41.1807 18.2505L41.2167 17.8187C41.3247 16.6307 41.6847 15.2628 42.1887 13.8589C42.6925 14.0029 43.1965 14.0749 43.7005 14.0749C45.0324 14.0749 46.1844 13.535 46.9042 12.563C47.6242 11.5911 47.9122 10.2952 47.5882 9.21529Z" fill="#5E12A0"/>
<path d="M42.4043 12.8152C45.6802 13.7151 47.012 11.1953 46.5802 9.50344C46.1122 7.81157 44.6002 6.08372 41.9365 4.13987C39.2727 2.19602 36.5728 1.40409 34.845 1.76405C33.1172 2.12404 32.6132 4.75182 33.0452 5.75974C33.2252 6.1557 33.6212 6.73165 34.161 7.3796C33.4772 7.84757 32.8292 8.20754 32.2892 8.53152C35.601 10.0074 38.4807 12.3112 40.6405 15.191C40.8925 14.2191 41.2525 13.3551 41.5765 12.5992C41.8285 12.6352 42.1165 12.7072 42.4043 12.8152Z" fill="url(#paint0_radial_642_5537)"/>
<path d="M23.6498 48.0923C34.7631 48.0923 43.7721 39.0832 43.7721 27.9698C43.7721 16.8567 34.7631 7.8475 23.6498 7.8475C12.5365 7.8475 3.5274 16.8567 3.5274 27.9698C3.5274 39.0832 12.5365 48.0923 23.6498 48.0923Z" fill="url(#paint1_radial_642_5537)"/>
<path opacity="0.6" d="M44.9242 7.84731C42.1884 4.96755 39.8847 4.2116 37.1129 3.59965C34.953 3.0957 35.529 1.8718 38.1567 2.12376C36.8969 1.6918 35.709 1.58381 34.845 1.7638C33.1172 2.12376 32.6132 4.75156 33.0452 5.75948C33.2252 6.15545 33.6212 6.7314 34.161 7.37935C33.1892 8.0273 32.3612 8.49526 31.6772 8.85523C32.0012 8.99921 32.3972 9.17921 32.8652 9.43118C34.089 10.0791 35.421 11.159 35.421 11.159C33.4052 9.43118 33.837 8.63925 36.6089 6.6954C37.4729 6.08345 39.0567 6.15545 40.5325 6.91138C42.0084 7.66733 43.7364 9.57518 43.7364 9.57518L42.0804 12.7429C42.1884 12.7789 42.2964 12.8149 42.4044 12.8509C43.4484 13.1389 44.2762 13.0669 44.9242 12.8149C45.6802 12.3469 47.66 10.7631 44.9242 7.84731Z" fill="#A98698"/>
<path d="M37.077 5.32775C37.797 5.61572 38.7328 6.11969 39.8848 6.87562C41.2527 7.77555 42.4405 8.78347 43.1965 9.5754C41.9367 11.2313 41.1087 13.4991 40.6047 15.083C40.8567 15.4429 41.1447 15.8029 41.3967 16.1629C41.6487 15.263 42.0807 13.9311 42.6565 12.5992C42.8005 12.6352 42.9805 12.6352 43.1605 12.6352C43.5925 12.6352 44.0965 12.5632 44.4923 12.2392C44.7803 12.0232 45.1043 11.6272 45.0683 10.9073C45.0683 10.2234 44.5283 9.35942 43.4125 8.3155C42.6205 7.55957 41.5407 6.73164 40.4607 5.97569C37.365 3.92385 35.2052 3.3479 34.2332 4.31982C33.5853 4.96777 33.6573 5.75972 33.8733 6.33567C32.7213 7.0916 31.7495 7.63157 31.1015 7.99154C31.5335 8.13552 31.9293 8.3155 32.3613 8.49549C33.5133 7.88354 35.1692 6.83962 37.077 5.32775ZM43.8805 10.4753C43.9885 10.6553 44.0245 10.8353 44.0245 10.9433C44.0245 11.2673 43.9165 11.3753 43.8445 11.4473C43.7005 11.5553 43.4125 11.6272 43.1605 11.6272C43.3765 11.1953 43.6285 10.8353 43.8805 10.4753ZM34.9892 5.11177C35.0972 5.00377 35.3852 4.93177 35.8532 5.00377C35.4932 5.29175 35.1332 5.54374 34.7732 5.7957C34.7372 5.54374 34.7732 5.29175 34.9892 5.11177Z" fill="#5E12A0"/>
<path d="M23.65 6.65935C11.8789 6.65935 2.33966 16.1986 2.33966 27.9697C2.33966 39.7407 11.8789 49.28 23.65 49.28C35.421 49.28 44.9603 39.7407 44.9603 27.9697C44.9603 16.1986 35.385 6.65935 23.65 6.65935ZM23.65 48.092C12.5268 48.092 3.52756 39.0927 3.52756 27.9697C3.52756 16.8465 12.5268 7.84725 23.65 7.84725C34.773 7.84725 43.7723 16.8465 43.7723 27.9697C43.7723 39.0927 34.7371 48.092 23.65 48.092Z" fill="#5E12A0"/>
<path opacity="0.6" d="M23.6498 48.0923C34.7631 48.0923 43.7721 39.0832 43.7721 27.9698C43.7721 16.8567 34.7631 7.8475 23.6498 7.8475C12.5365 7.8475 3.5274 16.8567 3.5274 27.9698C3.5274 39.0832 12.5365 48.0923 23.6498 48.0923Z" fill="url(#paint2_linear_642_5537)"/>
<path opacity="0.6" d="M23.5059 45.6447C12.5267 43.8808 5.0753 33.5497 6.87515 22.5705C7.66709 17.711 10.1149 13.5712 13.5706 10.5835C8.53102 13.4993 4.78732 18.5748 3.7794 24.7663C2.01554 35.7455 9.46694 46.0767 20.41 47.8405C26.5295 48.8485 32.4332 46.9407 36.7887 43.1968C32.937 45.4287 28.2575 46.4007 23.5059 45.6447Z" fill="#A98698"/>
<path opacity="0.6" d="M26.8535 8.13546C21.778 7.30753 16.8463 8.45944 12.8147 11.0152C12.7427 11.0872 12.6707 11.1592 12.6707 11.1592C14.2185 10.2233 16.4864 9.39536 16.4864 9.39536C10.6548 12.7791 8.85498 16.6308 8.85498 16.6308C11.1228 12.2391 17.7823 9.14338 23.0018 8.92739C28.2215 8.71141 31.6412 10.2593 35.8168 13.607C39.9925 16.9908 42.5123 23.9022 42.2603 29.3738C42.0443 34.8453 39.1645 39.273 39.1645 39.273C41.1443 36.7172 42.3323 34.8453 43.0882 32.9375C43.2322 32.3615 43.3762 31.7855 43.4482 31.1737C45.248 20.2305 37.8327 9.89933 26.8535 8.13546Z" fill="url(#paint3_linear_642_5537)"/>
<path d="M42.7645 27.7897C42.7645 38.3368 34.1972 46.9042 23.65 46.9042C13.1028 46.9042 4.49951 38.3368 4.49951 27.7897H42.7645Z" fill="url(#paint4_linear_642_5537)"/>
<g opacity="0.6">
<path opacity="0.6" d="M41.2524 27.7897C41.2524 38.0848 33.117 46.5082 22.8939 46.9042C23.1459 46.9042 23.3979 46.9042 23.6499 46.9042C34.197 46.9042 42.7644 38.3368 42.7644 27.7897H41.2524Z" fill="url(#paint5_linear_642_5537)"/>
</g>
<g opacity="0.7">
<path opacity="0.7" d="M7.1993 27.7897H4.49951C4.49951 38.3368 13.0668 46.9042 23.614 46.9042C24.082 46.9042 24.5138 46.9042 24.9458 46.8682C15.0467 46.1482 7.1993 37.8688 7.1993 27.7897Z" fill="url(#paint6_linear_642_5537)"/>
</g>
<path d="M42.7285 27.97C42.7285 25.7742 38.9128 24.5143 33.8372 24.0823C30.1655 23.7943 26.4578 24.1543 22.2102 25.4502C18.5383 26.5302 15.2266 26.3502 12.8148 26.0622C7.45128 25.4502 4.49951 25.3782 4.49951 27.97C4.49951 31.7137 12.1309 36.3933 23.578 34.7735C29.3735 33.9455 32.3613 32.2537 35.781 31.1017C39.4887 29.8778 42.7285 29.9138 42.7285 27.97Z" fill="url(#paint7_linear_642_5537)"/>
<path d="M29.9133 18.8988C31.7026 18.8988 33.153 17.4485 33.153 15.6592C33.153 13.8699 31.7026 12.4194 29.9133 12.4194C28.124 12.4194 26.6736 13.8699 26.6736 15.6592C26.6736 17.4485 28.124 18.8988 29.9133 18.8988Z" fill="white"/>
<path d="M35.205 21.31C35.9605 21.31 36.5728 20.6975 36.5728 19.9422C36.5728 19.1867 35.9605 18.5742 35.205 18.5742C34.4495 18.5742 33.837 19.1867 33.837 19.9422C33.837 20.6975 34.4495 21.31 35.205 21.31Z" fill="white"/>
<g opacity="0.6">
<path opacity="0.6" d="M40.1009 13.0669C40.0649 13.0669 40.0289 13.0669 40.0289 13.0669C39.8129 13.0309 39.6689 12.8149 39.7049 12.5629C40.0289 10.9071 41.3967 9.32319 41.4687 9.2512C41.6127 9.0712 41.9007 9.0712 42.0447 9.2152C42.2247 9.35919 42.2247 9.64717 42.0807 9.79115C42.0447 9.82715 40.7847 11.303 40.4969 12.7429C40.4609 12.9589 40.2809 13.0669 40.1009 13.0669Z" fill="url(#paint8_linear_642_5537)"/>
</g>
<path opacity="0.2" d="M22.3182 42.9802C22.8748 42.9802 23.326 42.529 23.326 41.9723C23.326 41.4157 22.8748 40.9643 22.3182 40.9643C21.7615 40.9643 21.3102 41.4157 21.3102 41.9723C21.3102 42.529 21.7615 42.9802 22.3182 42.9802Z" fill="white"/>
<g opacity="0.4">
<path opacity="0.6" d="M21.7421 42.62C21.3463 42.224 21.3463 41.5762 21.7421 41.1802C21.8141 41.1082 21.8861 41.0722 21.9581 41.0002C21.8141 41.0362 21.7061 41.1082 21.5981 41.2162C21.2023 41.6122 21.2023 42.26 21.5981 42.656C21.9221 42.98 22.4261 43.052 22.8221 42.836C22.4621 42.98 22.0301 42.908 21.7421 42.62Z" fill="url(#paint9_linear_642_5537)"/>
</g>
<path opacity="0.3" d="M22.6782 41.6843C22.7975 41.6843 22.8942 41.5877 22.8942 41.4685C22.8942 41.3492 22.7975 41.2525 22.6782 41.2525C22.5588 41.2525 22.4622 41.3492 22.4622 41.4685C22.4622 41.5877 22.5588 41.6843 22.6782 41.6843Z" fill="white"/>
<path opacity="0.2" d="M27.5737 42.4765C28.1304 42.4765 28.5817 42.0252 28.5817 41.4685C28.5817 40.9118 28.1304 40.4607 27.5737 40.4607C27.017 40.4607 26.5659 40.9118 26.5659 41.4685C26.5659 42.0252 27.017 42.4765 27.5737 42.4765Z" fill="white"/>
<g opacity="0.4">
<path opacity="0.6" d="M26.9978 42.1163C26.6018 41.7203 26.6018 41.0723 26.9978 40.6763C27.0698 40.6043 27.1418 40.5683 27.2138 40.4965C27.0698 40.5323 26.9618 40.6043 26.8538 40.7123C26.4578 41.1083 26.4578 41.7563 26.8538 42.1523C27.1778 42.4763 27.6817 42.5483 28.0777 42.3323C27.7177 42.4763 27.2857 42.4043 26.9978 42.1163Z" fill="url(#paint10_linear_642_5537)"/>
</g>
<path opacity="0.3" d="M27.9337 41.1807C28.053 41.1807 28.1497 41.084 28.1497 40.9647C28.1497 40.8453 28.053 40.7487 27.9337 40.7487C27.8143 40.7487 27.7177 40.8453 27.7177 40.9647C27.7177 41.084 27.8143 41.1807 27.9337 41.1807Z" fill="white"/>
<path opacity="0.2" d="M24.982 44.8167C25.3995 44.8167 25.738 44.4783 25.738 44.0608C25.738 43.6433 25.3995 43.3048 24.982 43.3048C24.5645 43.3048 24.226 43.6433 24.226 44.0608C24.226 44.4783 24.5645 44.8167 24.982 44.8167Z" fill="white"/>
<g opacity="0.4">
<path opacity="0.6" d="M24.55 44.5285C24.262 44.2405 24.262 43.7367 24.55 43.4487C24.586 43.4127 24.658 43.3767 24.694 43.3407C24.586 43.3767 24.514 43.4487 24.442 43.5207C24.154 43.8087 24.154 44.3125 24.442 44.6005C24.694 44.8525 25.054 44.8885 25.378 44.7085C25.09 44.8165 24.766 44.7445 24.55 44.5285Z" fill="url(#paint11_linear_642_5537)"/>
</g>
<path opacity="0.3" d="M25.2339 43.8085C25.3135 43.8085 25.3779 43.744 25.3779 43.6645C25.3779 43.585 25.3135 43.5205 25.2339 43.5205C25.1544 43.5205 25.09 43.585 25.09 43.6645C25.09 43.744 25.1544 43.8085 25.2339 43.8085Z" fill="white"/>
<path opacity="0.2" d="M18.0345 42.6208C18.949 42.6208 19.6904 41.8795 19.6904 40.965C19.6904 40.0505 18.949 39.309 18.0345 39.309C17.12 39.309 16.3786 40.0505 16.3786 40.965C16.3786 41.8795 17.12 42.6208 18.0345 42.6208Z" fill="white"/>
<g opacity="0.4">
<path opacity="0.6" d="M17.0985 42.0092C16.4505 41.3612 16.4505 40.3172 17.0985 39.6693C17.2065 39.5613 17.3143 39.4893 17.4583 39.4173C17.2425 39.4893 17.0625 39.6333 16.8825 39.7773C16.2345 40.4252 16.2345 41.4692 16.8825 42.1172C17.4223 42.657 18.2503 42.765 18.8983 42.369C18.2863 42.621 17.5663 42.513 17.0985 42.0092Z" fill="url(#paint12_linear_642_5537)"/>
</g>
<path opacity="0.3" d="M18.6103 40.4612C18.8091 40.4612 18.9703 40.3 18.9703 40.1012C18.9703 39.9023 18.8091 39.7412 18.6103 39.7412C18.4115 39.7412 18.2503 39.9023 18.2503 40.1012C18.2503 40.3 18.4115 40.4612 18.6103 40.4612Z" fill="white"/>
<path opacity="0.2" d="M32.829 38.5527C33.7435 38.5527 34.4848 37.8113 34.4848 36.8968C34.4848 35.9822 33.7435 35.2408 32.829 35.2408C31.9145 35.2408 31.1732 35.9822 31.1732 36.8968C31.1732 37.8113 31.9145 38.5527 32.829 38.5527Z" fill="white"/>
<g opacity="0.4">
<path opacity="0.6" d="M31.8572 37.9408C31.2092 37.293 31.2092 36.249 31.8572 35.6012C31.9652 35.4932 32.0732 35.4212 32.2172 35.3492C32.0012 35.4212 31.8212 35.5652 31.6412 35.7092C30.9932 36.357 30.9932 37.401 31.6412 38.0488C32.1812 38.5888 33.009 38.6968 33.657 38.3008C33.045 38.5528 32.3612 38.4448 31.8572 37.9408Z" fill="url(#paint13_linear_642_5537)"/>
</g>
<path opacity="0.3" d="M33.4049 36.393C33.6037 36.393 33.7649 36.2318 33.7649 36.033C33.7649 35.8342 33.6037 35.673 33.4049 35.673C33.206 35.673 33.0449 35.8342 33.0449 36.033C33.0449 36.2318 33.206 36.393 33.4049 36.393Z" fill="white"/>
<defs>
<radialGradient id="paint0_radial_642_5537" cx="0" cy="0" r="1" gradientUnits="userSpaceOnUse" gradientTransform="translate(45.9235 7.23559) scale(16.0887 16.0887)">
<stop stop-color="#FFEAFF" stop-opacity="0.6"/>
<stop offset="0.6807" stop-color="#A087C9"/>
<stop offset="1" stop-color="#10002F"/>
</radialGradient>
<radialGradient id="paint1_radial_642_5537" cx="0" cy="0" r="1" gradientUnits="userSpaceOnUse" gradientTransform="translate(36.9725 14.0971) scale(39.3632)">
<stop stop-color="#FFEAFF" stop-opacity="0.6"/>
<stop offset="0.6807" stop-color="#A087C9"/>
<stop offset="1" stop-color="#10002F"/>
</radialGradient>
<linearGradient id="paint2_linear_642_5537" x1="20.4296" y1="47.836" x2="26.87" y2="8.10375" gradientUnits="userSpaceOnUse">
<stop stop-color="#81FFFF"/>
<stop offset="0.6202" stop-color="white" stop-opacity="0"/>
</linearGradient>
<linearGradient id="paint3_linear_642_5537" x1="37.8187" y1="14.2907" x2="21.1792" y2="29.5578" gradientUnits="userSpaceOnUse">
<stop offset="0.2888" stop-color="white"/>
<stop offset="0.7796" stop-color="white" stop-opacity="0"/>
</linearGradient>
<linearGradient id="paint4_linear_642_5537" x1="4.49951" y1="37.347" x2="42.7645" y2="37.347" gradientUnits="userSpaceOnUse">
<stop stop-color="#0002E9"/>
<stop offset="0.9952" stop-color="#FF00C7"/>
</linearGradient>
<linearGradient id="paint5_linear_642_5537" x1="44.5755" y1="29.478" x2="23.762" y2="49.148" gradientUnits="userSpaceOnUse">
<stop offset="0.2888" stop-color="white"/>
<stop offset="0.7796" stop-color="white" stop-opacity="0"/>
</linearGradient>
<linearGradient id="paint6_linear_642_5537" x1="4.49951" y1="37.347" x2="24.9458" y2="37.347" gradientUnits="userSpaceOnUse">
<stop stop-color="#000292"/>
<stop offset="0.9952" stop-color="#7D00C7"/>
</linearGradient>
<linearGradient id="paint7_linear_642_5537" x1="4.54138" y1="29.5463" x2="42.7295" y2="29.5463" gradientUnits="userSpaceOnUse">
<stop stop-color="#000292"/>
<stop offset="0.9952" stop-color="#BE00C7"/>
</linearGradient>
<linearGradient id="paint8_linear_642_5537" x1="42.1117" y1="9.08119" x2="39.367" y2="13.5412" gradientUnits="userSpaceOnUse">
<stop offset="0.2888" stop-color="white"/>
<stop offset="0.7796" stop-color="white" stop-opacity="0"/>
</linearGradient>
<linearGradient id="paint9_linear_642_5537" x1="21.3013" y1="41.9798" x2="22.8243" y2="41.9798" gradientUnits="userSpaceOnUse">
<stop offset="0.2888" stop-color="white"/>
<stop offset="0.7796" stop-color="white" stop-opacity="0"/>
</linearGradient>
<linearGradient id="paint10_linear_642_5537" x1="26.5522" y1="41.476" x2="28.0752" y2="41.476" gradientUnits="userSpaceOnUse">
<stop offset="0.2888" stop-color="white"/>
<stop offset="0.7796" stop-color="white" stop-opacity="0"/>
</linearGradient>
<linearGradient id="paint11_linear_642_5537" x1="24.2213" y1="44.0808" x2="25.3647" y2="44.0808" gradientUnits="userSpaceOnUse">
<stop offset="0.2888" stop-color="white"/>
<stop offset="0.7796" stop-color="white" stop-opacity="0"/>
</linearGradient>
<linearGradient id="paint12_linear_642_5537" x1="16.38" y1="41.0122" x2="18.8672" y2="41.0122" gradientUnits="userSpaceOnUse">
<stop offset="0.2888" stop-color="white"/>
<stop offset="0.7796" stop-color="white" stop-opacity="0"/>
</linearGradient>
<linearGradient id="paint13_linear_642_5537" x1="31.1525" y1="36.944" x2="33.6397" y2="36.944" gradientUnits="userSpaceOnUse">
<stop offset="0.2888" stop-color="white"/>
<stop offset="0.7796" stop-color="white" stop-opacity="0"/>
</linearGradient>
</defs>
</svg>
