<svg width="50" height="50" viewBox="0 0 50 50" fill="none" xmlns="http://www.w3.org/2000/svg">
<g clip-path="url(#clip0_642_5527)">
<path d="M25 50C38.8072 50 50 38.8072 50 25C50 11.1929 38.8072 0 25 0C11.1929 0 0 11.1929 0 25C0 38.8072 11.1929 50 25 50Z" fill="#6F41D8"/>
<path d="M32.9563 19.8328C32.3798 19.4968 31.6313 19.4968 30.997 19.8328L26.4985 22.4172L23.4438 24.1015L18.9453 26.6843C18.3688 27.0218 17.6203 27.0218 16.986 26.6843L13.411 24.6625C12.8345 24.3265 12.4313 23.7093 12.4313 23.0343V19.0468C12.4313 18.3735 12.7766 17.7562 13.411 17.4187L16.9267 15.4531C17.5048 15.1156 18.2548 15.1156 18.8892 15.4531L22.4048 17.4187C22.9828 17.7562 23.386 18.3735 23.386 19.0468V21.6312L26.4407 19.889V17.3062C26.4442 16.9708 26.3543 16.641 26.1813 16.3535C26.0083 16.0661 25.759 15.8322 25.461 15.6781L18.9453 11.9719C18.3688 11.6344 17.6203 11.6344 16.986 11.9719L10.3548 15.6781C10.0568 15.8322 9.80744 16.0661 9.63448 16.3535C9.46151 16.641 9.37171 16.9708 9.37509 17.3062V24.775C9.37509 25.45 9.72039 26.0672 10.3548 26.4047L16.986 30.111C17.5627 30.4468 18.3127 30.4468 18.9453 30.111L23.4438 27.5828L26.4985 25.8422L30.997 23.3157C31.5735 22.9782 32.322 22.9782 32.9563 23.3157L36.4735 25.2813C37.0517 25.6172 37.4532 26.2343 37.4532 26.9093V30.8968C37.4532 31.5703 37.1095 32.1875 36.4735 32.525L32.9578 34.5468C32.3798 34.8843 31.6298 34.8843 30.997 34.5468L27.4798 32.5812C26.9017 32.2437 26.4985 31.6265 26.4985 30.9532V28.3687L23.4438 30.111V32.6938C23.4438 33.3672 23.7892 33.986 24.4235 34.3218L31.0548 38.0282C31.6313 38.3657 32.3798 38.3657 33.0142 38.0282L39.6453 34.3218C40.222 33.986 40.6252 33.3687 40.6252 32.6938V25.225C40.6285 24.8895 40.5387 24.5597 40.3657 24.2723C40.1927 23.9848 39.9433 23.751 39.6453 23.5968L32.9578 19.8328H32.9563Z" fill="white"/>
</g>
<defs>
<clipPath id="clip0_642_5527">
<rect width="50" height="50" fill="white"/>
</clipPath>
</defs>
</svg>
